<svg class="svg-icon" style="width: 1em; height: 1em;vertical-align: middle;fill: currentColor;overflow: hidden;" viewBox="0 0 1024 1024" version="1.1" xmlns="http://www.w3.org/2000/svg"><path d="M512 782.216533L723.626667 870.4H972.8a34.133333 34.133333 0 1 1 0 68.266667H51.2a34.133333 34.133333 0 1 1 0-68.266667h180.906667L443.733333 782.216533V594.090667L111.735467 230.4a35.908267 35.908267 0 0 1 1.8944-50.244267c6.485333-6.0928 15.0016-9.472 23.825066-9.472h487.133867c24.610133-69.597867 90.9824-119.466667 169.0112-119.466666C892.5696 51.2 972.8 131.4304 972.8 230.4S892.5696 409.6 793.6 409.6c-33.109333 0-64.119467-8.977067-90.7264-24.6272L512 594.0736v188.142933zM409.6 870.4h136.533333l-68.266666-28.450133L409.6 870.4z m340.992-537.7024A110.933333 110.933333 0 1 0 700.1088 170.666667h118.186667C837.632 170.666667 853.333333 186.589867 853.333333 206.216533a35.84 35.84 0 0 1-9.335466 24.1664l-93.3888 102.314667zM211.968 238.933333L477.866667 530.210133 743.765333 238.933333H211.968z" fill="#222222" /><path d="M324.266667 307.2h307.2l-153.6 169.796267z" fill="#FFDF32" /></svg>